<svg xmlns="http://www.w3.org/2000/svg" xmlns:xlink="http://www.w3.org/1999/xlink" viewBox="0 0 32 32"><defs><style>.cls-1{fill:url(#linear-gradient);}.cls-2{fill:url(#linear-gradient-2);}.cls-3{fill:url(#linear-gradient-3);}.cls-4{fill:url(#linear-gradient-4);}.cls-5{fill:url(#linear-gradient-5);}.cls-6{fill:url(#linear-gradient-6);}.cls-7{fill:url(#linear-gradient-7);}.cls-8{fill:url(#linear-gradient-8);}.cls-9{fill:url(#linear-gradient-9);}.cls-10{fill:url(#linear-gradient-10);}</style><linearGradient id="linear-gradient" x1="4.57" y1="5.19" x2="4.57" y2="10.57" gradientUnits="userSpaceOnUse"><stop offset="0" stop-color="#999"/><stop offset="1" stop-color="#676667"/></linearGradient><linearGradient id="linear-gradient-2" x1="16" y1="5.19" x2="16" y2="10.57" xlink:href="#linear-gradient"/><linearGradient id="linear-gradient-3" x1="27.43" y1="5.19" x2="27.43" y2="10.57" xlink:href="#linear-gradient"/><linearGradient id="linear-gradient-4" x1="4.57" y1="28.05" x2="4.57" y2="33.43" xlink:href="#linear-gradient"/><linearGradient id="linear-gradient-5" x1="16" y1="28.05" x2="16" y2="33.43" xlink:href="#linear-gradient"/><linearGradient id="linear-gradient-6" x1="27.43" y1="28.05" x2="27.43" y2="33.43" xlink:href="#linear-gradient"/><linearGradient id="linear-gradient-7" x1="4.57" y1="16.62" x2="4.57" y2="22" xlink:href="#linear-gradient"/><linearGradient id="linear-gradient-8" x1="4.51" y1="10.29" x2="4.58" y2="16.59" gradientUnits="userSpaceOnUse"><stop offset="0" stop-color="#ef850f"/><stop offset="1" stop-color="#f3b100"/></linearGradient><linearGradient id="linear-gradient-9" x1="15.94" y1="10.29" x2="16.01" y2="16.59" xlink:href="#linear-gradient-8"/><linearGradient id="linear-gradient-10" x1="27.36" y1="10.29" x2="27.44" y2="16.59" xlink:href="#linear-gradient-8"/></defs><title>ic-grid</title><g id="Layer_2" data-name="Layer 2"><g id="Layer_1-2" data-name="Layer 1"><rect class="cls-1" width="9.14" height="9.14" rx="1" ry="1"/><rect class="cls-2" x="11.43" width="9.14" height="9.14" rx="1" ry="1"/><rect class="cls-3" x="22.86" width="9.14" height="9.14" rx="1" ry="1"/><rect class="cls-4" y="22.86" width="9.14" height="9.14" rx="1" ry="1"/><rect class="cls-5" x="11.43" y="22.86" width="9.14" height="9.14" rx="1" ry="1"/><rect class="cls-6" x="22.86" y="22.86" width="9.14" height="9.14" rx="1" ry="1"/><rect class="cls-7" y="11.43" width="9.14" height="9.14" rx="1" ry="1"/><rect class="cls-8" y="11.43" width="9.14" height="9.14" rx="1" ry="1"/><rect class="cls-9" x="11.43" y="11.43" width="9.14" height="9.14" rx="1" ry="1"/><rect class="cls-10" x="22.86" y="11.43" width="9.14" height="9.14" rx="1" ry="1"/></g></g></svg>