<?xml version="1.0" encoding="UTF-8" standalone="no"?>
<svg
   viewBox="0 0 81 79.04"
   version="1.1"
   id="svg19"
   sodipodi:docname="icn-iconstat-panel.svg"
   inkscape:version="1.1.2 (b8e25be8, 2022-02-05)"
   xmlns:inkscape="http://www.inkscape.org/namespaces/inkscape"
   xmlns:sodipodi="http://sodipodi.sourceforge.net/DTD/sodipodi-0.dtd"
   xmlns:xlink="http://www.w3.org/1999/xlink"
   xmlns="http://www.w3.org/2000/svg"
   xmlns:svg="http://www.w3.org/2000/svg">
  <sodipodi:namedview
     id="namedview21"
     pagecolor="#ffffff"
     bordercolor="#666666"
     borderopacity="1.0"
     inkscape:pageshadow="2"
     inkscape:pageopacity="0.0"
     inkscape:pagecheckerboard="0"
     showgrid="false"
     inkscape:zoom="3.5107076"
     inkscape:cx="16.378465"
     inkscape:cy="28.91155"
     inkscape:window-width="1296"
     inkscape:window-height="947"
     inkscape:window-x="0"
     inkscape:window-y="25"
     inkscape:window-maximized="0"
     inkscape:current-layer="svg19" />
  <defs
     id="defs9">
    <style
       id="style2">.cls-1{fill:url(#linear-gradient);}.cls-2{fill:#3865ab;}.cls-3{fill:#84aff1;}</style>
    <linearGradient
       id="linear-gradient"
       y1="14.91"
       x2="81"
       y2="14.91"
       gradientUnits="userSpaceOnUse">
      <stop
         offset="0"
         stop-color="#f2cc0c"
         id="stop4" />
      <stop
         offset="1"
         stop-color="#ff9830"
         id="stop6" />
    </linearGradient>
    <linearGradient
       inkscape:collect="always"
       xlink:href="#linear-gradient"
       id="linearGradient1086"
       x1="15.515127"
       y1="53.612511"
       x2="65.515129"
       y2="53.612511"
       gradientUnits="userSpaceOnUse" />
  </defs>
  <path
     class="cls-1"
     d="m 13.12,0.4 v 29 h -7 V 8.71 H 5.85 a 5,5 0 0 1 -2,1.45 A 8.94,8.94 0 0 1 0,10.87 V 5.34 A 6.39,6.39 0 0 0 3.13,4.58 6.36,6.36 0 0 0 5.33,2.66 4.07,4.07 0 0 0 6.15,0.4 Z m 6.43,29 v -5 l 10.58,-9.3 a 22.8,22.8 0 0 0 2.76,-2.87 4.67,4.67 0 0 0 1,-2.91 A 3.6,3.6 0 0 0 32.72,6.5 4.23,4.23 0 0 0 29.79,5.5 4,4 0 0 0 26.88,6.58 4.08,4.08 0 0 0 25.77,9.6 H 19.12 A 9.6,9.6 0 0 1 20.45,4.49 8.79,8.79 0 0 1 24.2,1.17 12.74,12.74 0 0 1 29.82,0 a 13.77,13.77 0 0 1 5.74,1.11 8.81,8.81 0 0 1 3.77,3.07 8,8 0 0 1 1.34,4.59 8.48,8.48 0 0 1 -0.67,3.28 13.83,13.83 0 0 1 -2.4,3.6 52.32,52.32 0 0 1 -4.86,4.72 l -3.47,3.2 v 0.19 H 41 v 5.65 z M 49,29.82 a 3.59,3.59 0 0 1 -2.62,-1.08 3.67,3.67 0 0 1 0,-5.18 3.62,3.62 0 0 1 2.62,-1.06 3.58,3.58 0 0 1 2.56,1.06 3.55,3.55 0 0 1 0,5.18 3.56,3.56 0 0 1 -2.56,1.08 z m 7.86,-5.23 V 19.12 L 68.7,0.4 h 8.83 V 19.07 H 81 v 5.52 h -3.47 v 4.82 h -6.7 V 24.59 Z M 71,19.07 V 7.82 h -0.22 l -7,11 v 0.23 z"
     id="path11"
     style="fill:url(#linear-gradient)" />
  <polygon
     class="cls-2"
     points="81,79.04 81,47.84 53.24,61.55 27.32,43.53 0,54.29 0,79.04 "
     id="polygon13" />
  <path
     class="cls-3"
     d="M 53.24,63.55 A 2,2 0 0 1 52.1,63.2 L 27.1,45.8 2.77,55.86 A 2.0019303,2.0019303 0 1 1 1.24,52.16 L 26.55,41.68 a 2,2 0 0 1 1.91,0.21 L 53.38,59.22 78.06,46.15 a 2,2 0 1 1 1.88,3.53 L 54.17,63.32 a 1.91,1.91 0 0 1 -0.93,0.23 z"
     id="path15" />
  <path
     d="m 64.341989,45.8 h -5.84669 l -1.625,-4.062505 c -1.669925,-4.176765 -5.655285,-6.87501 -10.15431,-6.87501 H 34.313624 c -4.49805,0 -8.484385,2.698245 -10.155285,6.87501 L 22.533339,45.8 h -5.845715 c -0.762695,0 -1.322265,0.716795 -1.13672,1.456055 l 0.58594,2.343755 c 0.12988,0.521484 0.598635,0.887696 1.13672,0.887696 h 1.959965 c -1.311525,1.145509 -2.156255,2.81055 -2.156255,4.687506 v 4.687507 c 0,1.574221 0.601565,2.995121 1.562505,4.094732 v 5.280281 c 0,1.725588 1.399415,3.125004 3.125,3.125004 h 3.125005 c 1.72559,0 3.125005,-1.399416 3.125005,-3.125004 v -3.125005 h 25.000035 v 3.125005 c 0,1.725588 1.399415,3.125004 3.125005,3.125004 h 3.125005 c 1.725585,0 3.125,-1.399416 3.125,-3.125004 v -5.280281 c 0.96094,-1.098634 1.562505,-2.519535 1.562505,-4.094732 v -4.687507 c 0,-1.876956 -0.84473,-3.541997 -2.155275,-4.687506 h 1.95996 c 0.53809,0 1.00684,-0.366212 1.13672,-0.887696 l 0.58594,-2.343755 C 65.664254,46.516795 65.104684,45.8 64.341989,45.8 Z m -34.38091,-1.741215 c 0.711915,-1.7793 2.43555,-2.94629 4.352545,-2.94629 h 12.402365 c 1.916995,0 3.64063,1.16699 4.352545,2.94629 l 1.94629,4.86622 H 28.014789 Z m -5.071295,15.784203 c -1.875,0 -3.125005,-1.246096 -3.125005,-3.115239 0,-1.869144 1.250005,-3.115239 3.125005,-3.115239 1.875005,0 4.687505,2.803715 4.687505,4.672858 0,1.869143 -2.8125,1.55762 -4.687505,1.55762 z m 31.250045,0 c -1.875005,0 -4.68751,0.311523 -4.68751,-1.55762 0,-1.869143 2.812505,-4.672858 4.68751,-4.672858 1.875,0 3.125005,1.246095 3.125005,3.115239 0,1.869143 -1.250005,3.115239 -3.125005,3.115239 z"
     id="path192"
     style="stroke-width:0.0976565;fill-opacity:1.0;fill:url(#linearGradient1086)" />
</svg>
